<svg width="34" height="34" viewBox="0 0 34 34" fill="none" xmlns="http://www.w3.org/2000/svg">
<path d="M9.25624 0C4.14495 0 0 4.14495 0 9.25624V24.0662C0 29.1775 4.14495 33.3225 9.25624 33.3225H24.0662C29.1775 33.3225 33.3225 29.1775 33.3225 24.0662V9.25624C33.3225 4.14495 29.1775 0 24.0662 0H9.25624ZM27.7687 3.7025C28.7906 3.7025 29.62 4.53186 29.62 5.55375C29.62 6.57564 28.7906 7.405 27.7687 7.405C26.7468 7.405 25.9175 6.57564 25.9175 5.55375C25.9175 4.53186 26.7468 3.7025 27.7687 3.7025ZM16.6612 7.405C21.7725 7.405 25.9175 11.5499 25.9175 16.6612C25.9175 21.7725 21.7725 25.9175 16.6612 25.9175C11.5499 25.9175 7.405 21.7725 7.405 16.6612C7.405 11.5499 11.5499 7.405 16.6612 7.405ZM16.6612 11.1075C15.1883 11.1075 13.7757 11.6926 12.7341 12.7341C11.6926 13.7757 11.1075 15.1883 11.1075 16.6612C11.1075 18.1342 11.6926 19.5468 12.7341 20.5883C13.7757 21.6299 15.1883 22.215 16.6612 22.215C18.1342 22.215 19.5468 21.6299 20.5883 20.5883C21.6299 19.5468 22.215 18.1342 22.215 16.6612C22.215 15.1883 21.6299 13.7757 20.5883 12.7341C19.5468 11.6926 18.1342 11.1075 16.6612 11.1075Z" fill="#153D54"/>
</svg>
