<?xml version="1.0" encoding="utf-8"?>
<!-- Generator: Adobe Illustrator 19.2.1, SVG Export Plug-In . SVG Version: 6.00 Build 0)  -->
<svg version="1.1" id="layer" xmlns="http://www.w3.org/2000/svg" xmlns:xlink="http://www.w3.org/1999/xlink" x="0px" y="0px"
	 viewBox="0 0 652 652" style="enable-background:new 0 0 652 652;" xml:space="preserve">
<style type="text/css">
	.st0{fill:#FFDD00;}
	.st1{fill:#ED1D24;}
	.st2{fill:#FFFFFF;}
</style>
<path d="M620.2,250.8c0,0-15-4-20.7-4.5c0,0-22.8,12.3-29.2,16.4c-6.4,4.1-7.6,10.3-7.9,12.7l32.5-24h25.5
	C621.1,251.4,620.2,250.8,620.2,250.8"/>
<path d="M558.6,254.7l14.3-7.9l6.3,0.5l-20.6,11.4V254.7z M585.2,242.8c1.3,0,2.3,1,2.3,2.3c0,1.3-1,2.3-2.3,2.3
	c-1.3,0-2.3-1-2.3-2.3C582.9,243.9,583.9,242.8,585.2,242.8 M567.6,260.5c6.7-4.5,29.7-17.1,29.7-17.1l0,0
	c-3.9-4.2-11.1-8.4-20.2-8.4c-11.2,0-18.9,4.5-18.9,4.5h-126c0,3.4,5.1,6,11.1,6H480l31.2,22.1v33c0,14.3,7.5,26.8,19.8,34
	c12.3,7.2,18.5,6.7,27.5,6.7v-63C558.5,272.7,560.2,265.4,567.6,260.5"/>
<path class="st0" d="M480,245.5h52.5c-11.7,0-21.3,9.4-21.3,22.1L480,245.5z"/>
<path class="st1" d="M594.4,245c-4.2-3.5-10.7-6.8-18.4-6.8v-3.2l1.1,0c9.1,0,16.2,4.2,20.2,8.4L594.4,245z"/>
<path class="st1" d="M595,251.4l-22.8,16.8c0,0-0.3-2.5,3.2-5.2c3.4-2.8,24.1-16.7,24.1-16.7L595,251.4z"/>
<path class="st2" d="M549,294.3v-11.2c0-4.7-1.9-8-6.3-11.1l-18.6-13.1c-2.1,2.3-3.3,5.3-3.3,8.7c0,4.2,2,8,5.2,10.4L549,294.3z"/>
<path d="M179.6,276.9c-2.4-2.9-5.9-4.5-10.4-4.5c-9.2,0-16,7.5-16,17.8c0,10.3,6.8,17.8,15.6,17.8c4.9,0,8.9-2.2,11.4-5.9l10.1,7.6
	c-4.6,6.5-12.4,9.6-20,9.6c-17.2,0-29.8-11.3-29.8-29c0-17.7,12.6-29,29.8-29c6.2,0,14,2.1,18.6,8.1L179.6,276.9z"/>
<path d="M211.3,308.4c5.8,0,9.4-3.9,9.4-9.6c0-5.7-3.5-9.6-9.4-9.6c-5.8,0-9.4,3.9-9.4,9.6C202,304.5,205.5,308.4,211.3,308.4
	 M211.3,278.9c11.7,0,21,7.8,21,19.9c0,12.1-9.4,19.9-21,19.9c-11.7,0-21.1-7.8-21.1-19.9C190.3,286.7,199.6,278.9,211.3,278.9"/>
<path d="M236.7,279.9h11.7v6.1h0.2c2.5-4.6,5.8-7,10.9-7c1.3,0,2.8,0.1,3.9,0.4V290c-1.6-0.5-3.3-0.8-5-0.8c-8.9,0-10,5.1-10,12.7
	v15.8h-11.7V279.9z"/>
<path d="M266.7,279.9h11.2v5.1h0.2c1.6-3,5.4-6.1,11.1-6.1c11.8,0,14,7.8,14,17.9v20.9h-11.7v-18.6c0-4.4-0.1-10-6.1-10
	c-6.1,0-7,4.8-7,9.7v18.9h-11.7V279.9z"/>
<path d="M334.3,294.5c0.1-3.9-3-7.2-7.2-7.2c-5.1,0-7.9,3.5-8.3,7.2H334.3z M344.2,311.2c-3.7,4.8-9.9,7.5-16,7.5
	c-11.7,0-21-7.8-21-19.9c0-12.1,9.4-19.9,21-19.9c10.9,0,17.8,7.8,17.8,19.9v3.7h-27.1c0.9,4.4,4.3,7.3,8.8,7.3c3.8,0,6.4-2,8.3-4.6
	L344.2,311.2z"/>
<polygon points="350.1,290.1 350.1,262.6 361.8,262.6 361.8,290.1 361.8,317.8 350.1,317.8 "/>
<polygon points="368.7,290.1 368.7,262.6 380.4,262.6 380.4,290.1 380.4,317.8 368.7,317.8 "/>
<polygon points="38.1,267 38.1,317.8 43,317.8 43,267 60.5,267 60.5,262.6 20.7,262.6 20.7,267 38,267 "/>
<path d="M81.8,281.1c-5.8,0-10.5,3.2-12.3,7.2l0,0.1h-0.1h-0.2v-25.8h-4.4l0,55.2h4.4v-17.9c0-10,5.6-14.9,12.6-14.9
	c7.5,0,9.2,5.8,9.2,11.7v21.1h4.4v-21.3C95.4,288.6,93,281.1,81.8,281.1"/>
<path d="M106.4,296.8c0-1.9,2.9-11.8,13.2-11.8c7,0,12.6,5.4,12.6,11.8v0.1h-25.8V296.8z M120.2,314.8c-11,0-13.8-9.8-13.8-13.7
	v-0.1h30.2v-3.1c0-8.3-5.8-16.7-16.8-16.7c-10.5,0-17.9,8-17.9,18.7c0,11.1,7.2,18.9,18.1,18.9c6.3,0,11.8-2.2,15.4-7.6l-3.2-2.7
	C129.9,312.3,124.9,314.7,120.2,314.8"/>
<polygon points="394.1,290.1 394.1,262.6 389.3,262.6 389.3,290.1 389.3,317.7 416.6,317.7 416.6,313.3 394.1,313.3 "/>
<path d="M444.3,302.2c0,3-0.6,6.2-2.6,8.5c-1.9,2.4-5.1,4-10.1,4h0c-3.9,0-8.3-2.3-8.3-6.8c0-6.3,7.9-8.2,15.7-8.2h5.3V302.2z
	 M448.3,294c0-9.1-5.5-12.9-14.2-12.9c-4.6,0-10.1,1.8-13.5,4.9l2.6,3c3.2-2.7,6.8-4,11-4c5.8,0,10.3,2.6,10.3,8.9v2.3h-5.6
	c-3.5,0-8.5,0.3-12.6,1.9c-4.1,1.6-7.2,4.6-7.2,10c0,7.5,6.4,10.5,12.6,10.5c6,0,9.9-2.2,12.5-6.7l0-0.1h0.1h0.3v0.1
	c0,2,0.1,4,0.4,5.7h4.1c-0.5-4.1-0.7-8.1-0.7-15V294z"/>
<path d="M474.5,314.8c-8.6,0-15.2-6.7-15.2-14.9c0-8.2,6.6-14.9,15.2-14.9c8.9,0,14.4,6.7,14.4,14.9
	C488.9,308,483.4,314.7,474.5,314.8 M474.5,281.1c-5.3,0-11.5,2.3-14.3,7.2l0,0.1h-0.1h-0.3v-25.8h-4.4v55.2h4.4v-6.3h0.1h0.2l0,0.1
	c2.8,4.9,9,7.2,14.3,7.2c11,0,18.8-7.9,18.8-18.8C493.3,289,485.5,281.1,474.5,281.1"/>
<path d="M48.5,356.6c8.9,0,14.4,6.7,14.4,14.9c0,8.2-5.5,14.9-14.4,14.9c-8.9,0-14.4-6.7-14.4-14.9
	C34.1,363.3,39.6,356.7,48.5,356.6 M29.7,371.5c0,10.9,7.8,18.8,18.8,18.8c11,0,18.8-7.9,18.8-18.8c0-10.9-7.8-18.8-18.8-18.8
	C37.5,352.7,29.7,360.6,29.7,371.5"/>
<path d="M77.3,389.4h4.4v-30.3h8.4v-3.9h-8.4v-8.8c0-6.5,2.1-9.7,6.5-9.7c1.7,0,3,0.2,4.1,0.7l0.9-3.8c-1.4-0.6-3-0.9-5.2-0.9
	c-4.5,0-10.6,2.7-10.6,11.9v10.5h-7.5v3.9h7.3h0.1V389.4z"/>
<path d="M132.7,337.5c7.2,0,13.1,2.7,17.2,7.1s6.3,10.5,6.3,17.4c0,6.9-2.3,13-6.3,17.4c-4.1,4.4-10,7.1-17.2,7.1h0
	c-7.2,0-13.1-2.7-17.2-7.1c-4.1-4.4-6.3-10.5-6.3-17.4c0-6.9,2.3-13,6.3-17.4C119.6,340.1,125.4,337.5,132.7,337.5 M104.3,361.9
	c0,16.8,11.6,28.9,28.4,28.9c16.8,0,28.4-12.1,28.4-28.9c0-16.8-11.6-28.9-28.4-28.9C115.9,333.1,104.3,345.2,104.3,361.9"/>
<path d="M173.9,359.9l-0.2,0.3l-0.1-0.4c-0.2-0.7-0.2-3.6-0.3-6.2H169c0,2,0.4,7.4,0.4,10v25.7h4.4v-19.5c0-7.1,3.7-12.8,11.9-12.8
	c0.4,0,1,0.1,1.7,0.3l0.5-4.3c-0.9-0.2-1.7-0.4-2.6-0.4C179.9,352.7,176.2,355.7,173.9,359.9"/>
<path d="M211.4,352.7c-5.8,0-10.3,3.2-12.2,7.2l0,0.1h-0.1h-0.3l0-0.1c-0.2-0.7-0.2-3.6-0.3-6.2H194c0,2,0.4,7.4,0.4,10v25.7h4.4
	v-17.9c0-10,5.6-14.9,12.6-14.9c7.5,0,9.2,5.8,9.2,11.7v21.1h4.4v-21.3C225,360.2,222.6,352.7,211.4,352.7"/>
<path d="M235.6,339.1c0,1.9,1.5,3.4,3.4,3.4c1.9,0,3.4-1.5,3.4-3.4c0-1.9-1.5-3.4-3.4-3.4C237.1,335.7,235.6,337.2,235.6,339.1"/>
<polygon points="236.8,371.6 236.8,389.4 241.2,389.4 241.2,371.6 241.2,353.6 236.8,353.6 "/>
<path d="M266,386.4c-3.2,0-5.1-2-5.1-5.2v-23.6h10.3v-3.9h-10.3v-10.4h-4.4v10.4h-7.8v3.9h7.8v23.6c0,5.1,2.5,9.1,9.1,9.1
	c1.7,0,4.2-0.6,5.9-1.2l-0.4-3.9C269.6,385.9,267.7,386.4,266,386.4"/>
<path d="M297.1,352.7c-5.8,0-10.3,3.2-12.2,7.2l0,0.1h-0.1h-0.3v-25.8h-4.4v55.2h4.4v-17.9c0-10,5.6-14.9,12.6-14.9
	c7.5,0,9.2,5.8,9.2,11.7v21.1h4.4v-21.3C310.7,360.2,308.3,352.7,297.1,352.7"/>
<path d="M335,356.6c8.9,0,14.4,6.7,14.4,14.9c0,8.2-5.5,14.9-14.4,14.9c-8.9,0-14.4-6.7-14.4-14.9
	C320.6,363.3,326.1,356.7,335,356.6 M316.2,371.5c0,10.9,7.8,18.8,18.8,18.8c11,0,18.8-7.9,18.8-18.8c0-10.9-7.8-18.8-18.8-18.8
	C324,352.7,316.2,360.6,316.2,371.5"/>
<polygon points="360,361.7 360,389.4 364.4,389.4 364.4,361.7 364.4,334.2 360,334.2 "/>
<path d="M389.4,356.6c8.9,0,14.4,6.7,14.4,14.9c0,8.2-5.5,14.9-14.4,14.9c-8.9,0-14.4-6.7-14.4-14.9
	C375,363.3,380.5,356.7,389.4,356.6 M370.6,371.5c0,10.9,7.8,18.8,18.8,18.8c11,0,18.8-7.9,18.8-18.8c0-10.9-7.8-18.8-18.8-18.8
	C378.4,352.7,370.6,360.6,370.6,371.5"/>
<path d="M446.9,371c0,7.9-6.5,14.4-14.4,14.4c-7.9,0-14.4-6.5-14.4-14.4c0-7.9,6.5-14.4,14.4-14.4S446.9,363.1,446.9,371
	 M446.3,359.7c-2.7-4.3-7.4-7-13.5-7c-10.5,0-19.1,8.3-19.1,18.3c0,10.1,8.6,18.3,19.1,18.3c6.1,0,10.8-2.7,13.5-7l0-0.1h0.1h0.3
	v5.1c0,4-0.3,16.6-14.6,16.7c-5.6,0-10.9-1.7-15-5.9l-2.6,2.4c3.6,4.4,10.5,7.4,17.7,7.4c7.3,0,19-3.1,19-20.9v-33.5h-4.4v6.1h-0.1
	L446.3,359.7L446.3,359.7z"/>
<path d="M487.6,353.6l-11.7,30.6L462,353.6h-4.9l16.4,36l-3.3,8.4c-1.1,2.8-3.1,6.2-6.7,6.2c-2.4,0-3.8-0.4-5.1-0.9l-2.1,3.1
	c1.8,1,5.3,1.7,7.3,1.7c5.1,0,8.2-2.9,10.2-7.5l18.5-47H487.6z"/>
<path class="st2" d="M549,294.3v-11.2c0-4.7-1.9-8-6.3-11.1l-18.6-13.1c-2.1,2.3-3.3,5.3-3.3,8.7c0,4.2,2,8,5.2,10.4L549,294.3z"/>
<path class="st2" d="M570.3,262.8c6.4-4.1,29.2-16.4,29.2-16.4c-0.4-0.8-1.3-2-2.2-2.9l0,0c0,0-23,12.6-29.7,17.1
	c-6.8,4.5-8.7,11.1-9,16.4l0,1.4l3.9-2.9C562.7,273.1,564,266.9,570.3,262.8"/>
<path class="st2" d="M585.2,242.8c1.3,0,2.3,1,2.3,2.3c0,1.3-1,2.3-2.3,2.3c-1.3,0-2.3-1-2.3-2.3
	C582.9,243.9,583.9,242.8,585.2,242.8"/>
<polygon class="st2" points="558.6,254.7 572.9,246.8 579.2,247.3 558.6,258.7 "/>
</svg>
